<svg id="Layer_1" data-name="Layer 1" xmlns="http://www.w3.org/2000/svg" viewBox="0 0 512 512"><defs><style>.cls-1{fill:#cccccd;}</style></defs><path class="cls-1" d="M250,142.32c-23.15,1.25-42,22-42,45.16V209h89V186.75A44.54,44.54,0,0,0,250,142.32Z" transform="translate(0.13 -0.69)"/><path class="cls-1" d="M255.88.69c-141.39,0-256,114.61-256,256s114.62,256,256,256,256-114.62,256-256S397.26.69,255.88.69ZM353,353.78A22.22,22.22,0,0,1,330.78,376H175.22A22.22,22.22,0,0,1,153,353.78V214.56a5.56,5.56,0,0,1,5.56-5.56H175V186.75a78,78,0,0,1,85.21-77.55c40.27,3.63,70.79,38,70.79,78.47V209h16.44a5.56,5.56,0,0,1,5.56,5.56Z" transform="translate(0.13 -0.69)"/><path class="cls-1" d="M275,275.37a22.25,22.25,0,0,0-44.41-2,22,22,0,0,0,9,19.9l-3.5,31.55a5.6,5.6,0,0,0,3.73,5.9,5.68,5.68,0,0,0,1.88.28H263.8a5.44,5.44,0,0,0,1.88-.29,5.58,5.58,0,0,0,3.72-5.89l-3.5-31.55A22,22,0,0,0,275,275.37Z" transform="translate(0.13 -0.69)"/></svg>